{
	"asset":{
		"generator":"Khronos glTF Blender I/O v4.0.44",
		"version":"2.0"
	},
	"scene":0,
	"scenes":[
		{
			"name":"Scene",
			"nodes":[
				0
			]
		}
	],
	"nodes":[
		{
			"mesh":0,
			"name":"Star.001"
		}
	],
	"materials":[
		{
			"doubleSided":true,
			"name":"BasePalette",
			"pbrMetallicRoughness":{
				"baseColorTexture":{
					"index":0
				},
				"metallicFactor":0,
				"roughnessFactor":0.5
			}
		}
	],
	"meshes":[
		{
			"name":"Plane.005",
			"primitives":[
				{
					"attributes":{
						"POSITION":0,
						"NORMAL":1,
						"TEXCOORD_0":2
					},
					"indices":3,
					"material":0
				}
			]
		}
	],
	"textures":[
		{
			"sampler":0,
			"source":0
		}
	],
	"images":[
		{
			"mimeType":"image/png",
			"name":"base_palette",
			"uri":"base_palette.png"
		}
	],
	"accessors":[
		{
			"bufferView":0,
			"componentType":5126,
			"count":1992,
			"max":[
				0.1357092708349228,
				0.10872913897037506,
				0.14244113862514496
			],
			"min":[
				-0.13570916652679443,
				0.0029452405869960785,
				-0.14244148135185242
			],
			"type":"VEC3"
		},
		{
			"bufferView":1,
			"componentType":5126,
			"count":1992,
			"type":"VEC3"
		},
		{
			"bufferView":2,
			"componentType":5126,
			"count":1992,
			"type":"VEC2"
		},
		{
			"bufferView":3,
			"componentType":5123,
			"count":3672,
			"type":"SCALAR"
		}
	],
	"bufferViews":[
		{
			"buffer":0,
			"byteLength":23904,
			"byteOffset":0,
			"target":34962
		},
		{
			"buffer":0,
			"byteLength":23904,
			"byteOffset":23904,
			"target":34962
		},
		{
			"buffer":0,
			"byteLength":15936,
			"byteOffset":47808,
			"target":34962
		},
		{
			"buffer":0,
			"byteLength":7344,
			"byteOffset":63744,
			"target":34963
		}
	],
	"samplers":[
		{
			"magFilter":9729,
			"minFilter":9987
		}
	],
	"buffers":[
		{
			"byteLength":71088,
			"uri":"daze.bin"
		}
	]
}
